<svg width="33" height="33" viewBox="0 0 33 33" fill="none" xmlns="http://www.w3.org/2000/svg">
<path d="M11 11V22V11ZM11 24.75C10.2437 24.75 9.59658 24.481 9.0585 23.9429C8.5195 23.4039 8.25 22.7563 8.25 22V11C8.25 10.2437 8.5195 9.59658 9.0585 9.0585C9.59658 8.5195 10.2437 8.25 11 8.25H22C22.7563 8.25 23.4039 8.5195 23.9429 9.0585C24.481 9.59658 24.75 10.2437 24.75 11V22C24.75 22.7563 24.481 23.4039 23.9429 23.9429C23.4039 24.481 22.7563 24.75 22 24.75H11ZM11 22H22V11H11V22Z" fill="black"/>
</svg>
